<svg xmlns="http://www.w3.org/2000/svg" viewBox="0 0 760 560" role="img" aria-labelledby="title desc">
  <title id="title">Enterprise security stack</title>
  <desc id="desc">Layered compliance and security panels with crisp line art.</desc>
  <defs>
    <linearGradient id="panel" x1="0" y1="0" x2="1" y2="1">
      <stop offset="0" stop-color="#ffffff"/>
      <stop offset="1" stop-color="#e4f7ff"/>
    </linearGradient>
    <filter id="blueShadow" x="-20%" y="-20%" width="150%" height="150%">
      <feDropShadow dx="24" dy="28" stdDeviation="3" flood-color="#8bd2ee" flood-opacity=".32"/>
      <feDropShadow dx="0" dy="24" stdDeviation="18" flood-color="#263d46" flood-opacity=".12"/>
    </filter>
  </defs>
  <rect width="760" height="560" fill="#fbfaf8"/>
  <g transform="translate(102 84) rotate(-13)" filter="url(#blueShadow)">
    <rect width="276" height="214" fill="url(#panel)" stroke="#272522" stroke-width="2"/>
    <circle cx="116" cy="82" r="38" fill="none" stroke="#272522" stroke-width="2"/>
    <path d="M61 172c24-38 60-58 108-58 44 0 78 17 102 51" fill="none" stroke="#272522" stroke-width="2"/>
    <path d="M194 100 234 82l40 18v44c0 28-14 50-40 66-26-16-40-38-40-66Z" fill="#f6fbff" stroke="#272522" stroke-width="2"/>
    <path d="m215 145 15 15 30-39" fill="none" stroke="#272522" stroke-width="3" stroke-linecap="round" stroke-linejoin="round"/>
  </g>
  <g transform="translate(421 271) rotate(-13)" filter="url(#blueShadow)">
    <rect width="214" height="160" fill="url(#panel)" stroke="#272522" stroke-width="2"/>
    <path d="M56 106V64h102v42M74 106V80M107 106V80M140 106V80M42 120h130" fill="none" stroke="#272522" stroke-width="2"/>
  </g>
  <g transform="translate(70 350) rotate(-13)" filter="url(#blueShadow)">
    <rect width="106" height="82" fill="url(#panel)" stroke="#272522" stroke-width="2"/>
    <path d="M22 44h62" stroke="#272522" stroke-width="2"/>
  </g>
  <g transform="translate(40 91) rotate(-13)" filter="url(#blueShadow)">
    <rect width="104" height="82" fill="url(#panel)" stroke="#272522" stroke-width="2"/>
    <path d="M22 30h60M22 50h42" stroke="#272522" stroke-width="2"/>
  </g>
  <g transform="translate(554 58) rotate(-13)" filter="url(#blueShadow)">
    <rect width="104" height="82" fill="url(#panel)" stroke="#272522" stroke-width="2"/>
    <path d="M26 42h52M52 20v44" stroke="#272522" stroke-width="2"/>
  </g>
</svg>
